# xmcd
#
# Track frame offsets:
#	150
#	11306
#	20649
#	28297
#	40216
#	52620
#	61769
#	72501
#	83260
#	95061
#	106595
#	117997
#	126689
#	139288
#	149697
#	159521
#	169418
#	177581
#	190094
#	200664
#	209193
#	220846
#	230008
#	241527
#	253568
#	265448
#	275304
#	284655
#	296677
#	307990
#	318129
#	331418
#
# Disc length: 4568 seconds
#
# Revision: 0
# Processed by: cddbd v1.5.2PL0 Copyright (c) Steve Scherf et al.
# Submitted via: EZCDAudioConverter 7.1.1.1
#
DISCID=ea11d620
DTITLE=Various Artist - Rockin' Hillbilly - Vol. 06
DYEAR=1900
DGENRE=Country
TTITLE0=Jimmie Osborne - Automobile Baby
TTITLE1=Fred Crawford - You Gotta Wait
TTITLE2=Trailblazers - Keep Your Motor Hot
TTITLE3=Rod Morris - Alabama Jailhouse
TTITLE4=Ferlin Husky - I'll Baby Sit With You
TTITLE5=McCormick Bros. - Big Eyes
TTITLE6=Roy Harris - South Of San Antonio
TTITLE7=Jack Cardwell - There's A Train Leaving
TTITLE8=Billy Briggs - Coyote Song
TTITLE9=Lucky Boggs - You Can't Stop her
TTITLE10=Skeets McDonalds - Scoot Git And Begone
TTITLE11=Frank Evans - The Ain't Got Blues
TTITLE12=Jimmy Short - Everybody's Tryin To Be My Baby
TTITLE13=Pat Patterson - Mr. Hillbilly
TTITLE14=Marvin Paul - Gamblin' Woman
TTITLE15=Bob King - No Parkin' Here
TTITLE16=Riley Crabtree - Try Me
TTITLE17=Bill Lillpop - One Eyed Sal
TTITLE18=Terry Fell - You Don't Give A Hang About Me
TTITLE19=Cliff Walden - My Baby Doll
TTITLE20=Delmore Brothers - Steamboat Bill Boogie
TTITLE21=Roy Hogsed - Ain't A Bump In The Road
TTITLE22=Tommy Scott - Freckle Faced Gal
TTITLE23=Billy Barnett - Tired Of Your Honky Tonk Love
TTITLE24=Skeeter Bonn - Chained
TTITLE25=Gordon Terry - Service With A Smile
TTITLE26=Mac Wiseman - I'm Eating' High On A Hog
TTITLE27=Ann Jones - Monkey Business
TTITLE28=Willis Brothers - Warm Beer and Cold Woman
TTITLE29=Bobby Roberts - Baby I'm Combin' You Outta My Hair
TTITLE30=Red Perkins - Hoe Down Boogie
TTITLE31=Chuck Bowers - Tokyo Boogie
EXTD=
EXTT0=
EXTT1=
EXTT2=
EXTT3=
EXTT4=
EXTT5=
EXTT6=
EXTT7=
EXTT8=
EXTT9=
EXTT10=
EXTT11=
EXTT12=
EXTT13=
EXTT14=
EXTT15=
EXTT16=
EXTT17=
EXTT18=
EXTT19=
EXTT20=
EXTT21=
EXTT22=
EXTT23=
EXTT24=
EXTT25=
EXTT26=
EXTT27=
EXTT28=
EXTT29=
EXTT30=
EXTT31=
PLAYORDER=
